<?xml version="1.0" encoding="UTF-8" standalone="no"?>
<svg width="22px" height="19px" viewBox="0 0 22 19" version="1.1" xmlns="http://www.w3.org/2000/svg" xmlns:xlink="http://www.w3.org/1999/xlink">
    <!-- Generator: Sketch 44.1 (41455) - http://www.bohemiancoding.com/sketch -->
    <title>money</title>
    <desc>Created with Sketch.</desc>
    <defs></defs>
    <g id="zhibo" stroke="none" stroke-width="1" fill="none" fill-rule="evenodd">
        <g id="直播中心-copy" transform="translate(-330.000000, -745.000000)">
            <g id="Group-14" transform="translate(0.000000, 487.000000)">
                <g id="Group-6" transform="translate(14.000000, 239.000000)">
                    <g id="message-copy" transform="translate(301.000000, 0.000000)">
                        <g id="money" transform="translate(15.000000, 19.000000)">
                            <g id="优惠券-(2)">
                                <path d="M21.3788925,6.67844832 C21.9730965,6.28636071 21.9897187,5.98654767 21.9897187,5.4641384 L21.9897187,1.82142828 C21.9897187,0.815510991 21.1692602,0 20.1572401,0 L1.83247861,0 C0.820483126,0 2.45528661e-05,0.815510991 2.45528661e-05,1.82142828 L2.45528661e-05,5.4641384 C2.45528661e-05,6.00826795 0.0381306011,6.37121622 0.610850756,6.67844832 C1.44535357,7.06470319 2.44332936,7.84512007 2.44332936,9.10711698 C2.44332936,10.7448259 1.40761581,11.277656 0.64686981,11.5330279 C0.111420906,11.8661047 0,12.4146027 0,12.7498515 L0,16.3927081 C0,17.3987474 0.820458574,18.2141363 1.83247861,18.2141363 L20.1572401,18.2141363 C21.1692602,18.2141363 21.9897187,17.3987718 21.9897187,16.3927081 L21.9897187,12.7498759 C21.9897187,12.0867485 21.8365089,11.8765743 21.3788925,11.535566 C20.0447389,10.8519142 19.5464139,10.2433315 19.5464139,9.10699495 C19.5464385,7.97065839 20.0131148,7.40519904 21.3789171,6.67844832 L21.3788925,6.67844832 Z" id="Shape" fill="#F8E81C" fill-rule="nonzero"></path>
                                <path d="M14.3543912,7.89268503 L12.0484351,7.89268503 L14.5515998,5.21945582 C14.6598534,5.10189787 14.6598534,4.91114991 14.5515998,4.79346993 L14.1598343,4.36750845 C14.0515807,4.24982848 13.8762978,4.24982848 13.7680442,4.36750845 L10.9919499,7.33210664 L8.21477518,4.36655666 C8.10738094,4.24985288 7.93327657,4.24985288 7.82602965,4.36655666 L7.43728412,4.7892479 C7.32988988,4.90595168 7.32988988,5.09513774 7.43728412,5.21184152 L9.94791289,7.89270944 L7.63530298,7.89270944 C7.46657569,7.89270944 7.32986533,8.02874182 7.32986533,8.19630522 L7.32986533,8.80357 C7.32986533,8.97125543 7.46657569,9.10716579 7.63530298,9.10716579 L10.3839963,9.10716579 L10.3839963,10.3214269 L7.63530298,10.3214269 C7.46657569,10.3214269 7.32986533,10.4573129 7.32986533,10.6250227 L7.32986533,11.232141 C7.32986533,11.3997288 7.46657569,11.5357368 7.63530298,11.5357368 L10.3839963,11.5357368 L10.3839963,13.6607365 C10.3839963,13.8282999 10.5207067,13.9643079 10.689434,13.9643079 L11.3002356,13.9643079 C11.4689629,13.9643079 11.6056733,13.8282999 11.6056733,13.6607121 L11.6056733,11.5357368 L14.3543667,11.5357368 C14.523094,11.5357368 14.6598043,11.3997288 14.6598043,11.232141 L14.6598043,10.6250471 C14.6598043,10.4573373 14.523094,10.3214513 14.3543667,10.3214513 L11.6056733,10.3214513 L11.6056733,9.10716579 L14.3543667,9.10716579 C14.523094,9.10716579 14.6598043,8.97127983 14.6598043,8.80357 L14.6598043,8.19632963 C14.6598043,8.02874182 14.523094,7.89273384 14.3543667,7.89273384 L14.3543912,7.89268503 Z" id="Path" fill="#FE3666"></path>
                            </g>
                        </g>
                    </g>
                </g>
            </g>
        </g>
    </g>
</svg>